<?xml version="1.0" encoding="UTF-8"?>
<svg xmlns="http://www.w3.org/2000/svg" viewBox="0 0 2311.2 2174.4">
  <defs>
    <style>
      .cls-1 {
        fill: #fff;
      }

      .cls-2 {
        stroke: #000;
        stroke-miterlimit: 10;
      }

      .cls-3 {
        fill: #c4c4c4;
      }
    </style>
  </defs>
  <g id="Capa_16" data-name="Capa 16">
    <rect class="cls-1" width="2311.2" height="2174.4"/>
  </g>
  <g id="Capa_2" data-name="Capa 2">
    <path class="cls-2" d="M452.8,1335.2s179.73-.53,183.47,2.67c60.35,51.73,195.33,207.73,531.33,166.93,371.52-45.11,472.18-224.27,472.18-224.27,0,0,69.28-30.93,110.49-69.26l104.13-31.27s-126.94,417.4-700.8,459.2c-483.2,35.2-700.8-304-700.8-304Z"/>
  </g>
  <g id="Capa_3" data-name="Capa 3">
    <path d="M452.8,784.8l167.6-10.8s117.52-209.81,505.17-238.34c332.43-24.46,492.03,186.74,492.03,186.74,0,0,72,8.4,138,58.8s84,97.2,84,97.2l55.33,9.87s-133.33-483.78-731.11-483.78c-576.8,0-711.03,380.32-711.03,380.32Z"/>
  </g>
  <g id="Capa_5" data-name="Capa 5">
    <path d="M1444.78,1311.72l32.28-71.87s63.23-1.55,126.94-29.98c64.53-28.8,98.4-63.47,98.4-63.47,0,0,231.39-34.16,228.8-121.6-2.13-72-148-90.4-148-90.4,0,0-50.4-154.67-256.8-153.87s-1080.3,26.95-1080.3,26.95l6.7-8.62s878.33-60.49,1034.4-63.61c102.4-2.05,191.76,19.95,243.2,55.15,76,52,84.8,99.2,84.8,99.2,0,0,191.2,13.6,191.2,123.47,0,121.07-264.8,176.53-264.8,176.53,0,0-58.4,44.8-139.47,80s-157.35,42.12-157.35,42.12Z"/>
  </g>
  <g id="Capa_15" data-name="Capa 15">
    <path class="cls-2" d="M1198.29,967.2s-143.85,15.97-151.9,56.22,25.61,115.78,435.21,118.18,423.2-107.73,421.6-119.47-32.57-54.49-145.89-70.71-559.03,15.78-559.03,15.78Z"/>
  </g>
  <g id="Capa_11" data-name="Capa 11">
    <path class="cls-3" d="M1243.73,1132s37.87,80,199.47,80,225.6-84.13,225.6-84.13l-425.07,4.13Z"/>
  </g>
  <g id="Capa_10" data-name="Capa 10">
    <path d="M1219.73,1132.4s73.54,98.18,228.8,90.27c177.87-9.07,242.3-94.79,242.3-94.79l-37.55,5s-42.08,59.52-204.75,67.92c-138.36,7.14-193.73-64-193.73-64l-35.07-4.4Z"/>
  </g>
  <g id="Capa_6" data-name="Capa 6">
    <path class="cls-2" d="M1198.93,954.93s-166.93,13.87-166.93,84.27c0,97.6,270.21,113.79,444.8,110.4,185.2-3.6,437.41-35.55,437.41-126.18,0-56.22-151.41-77.3-151.41-77.3,0,0,.78,19.36,3.18,20.16s128.96,17.45,128.96,60.08c0,61.62-185.37,103.63-414.93,101.64-277.6-2.4-427.41-36.19-426.13-89.33,1.07-44.27,130.13-60.27,130.13-60.27l14.93-23.47Z"/>
  </g>
  <g id="Capa_7" data-name="Capa 7">
    <path class="cls-2" d="M1173.87,1016c-5.84-38.4,74.93-238.8,374.52-223.05,170,8.94,246.86,134.35,227.62,223.05-9.2,42.4-216,73.74-312.8,71.2-213.6-5.6-282.4-25.6-289.33-71.2Z"/>
  </g>
  <g id="Capa_8" data-name="Capa 8">
    <path class="cls-1" d="M1193.6,1015.2c-8.27-47.11,87.47-210.67,333.87-208,173.86,1.88,251.61,124.31,231.25,203.2-5.65,21.87-132.05,53.87-261.65,57.6-99.73,2.87-295.57-7.78-303.47-52.8Z"/>
  </g>
  <g id="Capa_9" data-name="Capa 9">
    <path class="cls-3" d="M1673.07,1022.13s11.2-57.07-7.47-107.73-91.73-79.47-91.73-79.47v-8s82.19,15.61,124.53,61.33c53.33,57.6,41.5,108.87,36.8,113.07-20.54,18.37-62.13,20.8-62.13,20.8Z"/>
  </g>
  <g id="Capa_13" data-name="Capa 13">
    <path d="M501.38,1314.93c16.04-13.85,32.08-27.71,48.11-41.56,2.18-1.89,4.36-3.78,6.55-5.65,.48-.41,.97-.81,1.46-1.22,.94-.79-.43,.31-.51,.38,.26-.24,.58-.43,.87-.63,1.1-.77,2.24-1.45,3.46-2l-1.79,.76c1-.42,2-.73,3.07-.89l-1.99,.27c.8-.09,1.57-.09,2.37,.01l-1.99-.27c.27,.04,.54,.09,.8,.16l-5.24-9.23c-7.03,17.96-14.23,35.86-21.32,53.8-.67,1.7-.13,4.27,.76,5.78s2.69,3.04,4.48,3.45c1.92,.44,4.07,.34,5.78-.76s2.69-2.57,3.45-4.48c7.1-17.94,14.29-35.84,21.32-53.8,.64-1.63,.17-4.34-.76-5.78-1.03-1.6-2.57-3.01-4.48-3.45-3.43-.79-6.96-.62-10.24,.71s-6.15,3.3-8.98,5.62c-4.53,3.71-8.88,7.65-13.31,11.47-9.02,7.79-18.04,15.58-27.06,23.38-5.14,4.44-10.27,8.87-15.41,13.31-2.98,2.57-2.84,8,0,10.61,3.17,2.91,7.43,2.75,10.61,0h0Z"/>
    <path d="M595.15,1252.8c-6.99,14.99-13.15,30.38-18.34,46.08-1.54,4.66-4.44,10.6-1.58,15.25,1.94,3.15,5.31,4.44,8.87,4.51,.64,.01,1.27,0,1.91,0,4.54-.01,9.09-.08,13.63-.14s9.44-.15,14.15-.15c3.92,0,7.68-3.45,7.5-7.5s-3.3-7.5-7.5-7.5c-5.23,0-10.47,.1-15.7,.17-2.97,.04-5.93,.07-8.9,.1-2.03,.02-4.16,.2-6.18-.06l1.99,.27c-.21-.03-.41-.09-.61-.17l1.79,.76c.71,.5,1.32,1.1,1.83,1.8l.76,1.79-.07-.36,.27,1.99v-.38c-.09,.66-.18,1.33-.27,1.99,.22-1.62,.9-3.22,1.39-4.77,.53-1.67,1.08-3.33,1.63-4.99,1.08-3.24,2.21-6.47,3.37-9.68,2.36-6.5,4.88-12.94,7.57-19.31l-.76,1.79c1.98-4.69,4.04-9.33,6.19-13.94,.87-1.87,1.32-3.72,.76-5.78-.48-1.74-1.82-3.63-3.45-4.48-3.32-1.75-8.49-1.11-10.26,2.69h0Z"/>
    <path d="M681.43,1300.62c-11.37,0-22.74,0-34.12-.09-2.57-.02-5.15-.04-7.72-.1l6.48,11.29c3.38-6.36,6.76-12.73,10.14-19.09,.48-.91,.97-1.83,1.45-2.74l-6.48,3.71c8.33,.14,16.67,.16,25,.08,3.92-.04,7.68-3.42,7.5-7.5s-3.3-7.54-7.5-7.5c-8.33,.09-16.67,.06-25-.08-2.55-.04-5.27,1.44-6.48,3.71-3.38,6.36-6.76,12.73-10.14,19.09-.48,.91-.97,1.83-1.45,2.74-2.69,5.05,.65,11.15,6.48,11.29,11.65,.27,23.32,.17,34.98,.18,2.29,0,4.57,0,6.86,0,3.92,0,7.68-3.45,7.5-7.5s-3.3-7.5-7.5-7.5h0Z"/>
    <path d="M704.2,1254.1h-39.7c-2.58,0-5.23,1.41-6.48,3.71-3.73,6.87-7.46,13.75-11.19,20.62-.54,.99-1.08,1.99-1.62,2.98-1.87,3.45-.97,8.33,2.69,10.26s8.26,.99,10.26-2.69c3.73-6.87,7.46-13.75,11.19-20.62,.54-.99,1.08-1.99,1.62-2.98l-6.48,3.71h39.7c3.92,0,7.68-3.45,7.5-7.5s-3.3-7.5-7.5-7.5h0Z"/>
    <path d="M709.72,1314.78c8.49-6.17,17.03-12.26,25.55-18.38,10.51-7.55,21.02-15.09,31.5-22.7,3.37-2.45,6.77-4.87,10.08-7.41,1.62-1.25,2.88-2.43,3.45-4.48,.49-1.8,.27-4.19-.76-5.78s-2.57-3.01-4.48-3.45-4.22-.44-5.78,.76c-7.48,5.75-15.23,11.15-22.88,16.66-10.74,7.74-21.49,15.45-32.24,23.17-4.01,2.88-8.02,5.75-12.01,8.66-1.63,1.18-2.89,2.48-3.45,4.48-.49,1.8-.27,4.19,.76,5.78,2.02,3.14,6.87,5.16,10.26,2.69h0Z"/>
    <path d="M815.6,1305.18c7.11,2.74,14.74,4.52,22.23,5.82,9.95,1.73,20.47,2.67,30.28-.39,4.66-1.45,9.32-3.78,12.68-7.4,3.81-4.1,5.87-9.35,5.93-14.95,.05-4.62-1.63-9.01-4.93-12.27s-7.59-5.14-11.93-6.27c-3.08-.8-6.28-1.21-9.44-1.48-1.97-.17-3.98-.33-5.96-.17-3.49,.29-6.96,.93-10.43,1.4l1.99-.27c-4.28,.57-8.68,1.06-12.99,.51l1.99,.27c-1.3-.18-2.59-.47-3.81-.96l1.79,.76c-.41-.17-.8-.36-1.18-.58-.21-.12-.41-.26-.61-.4-.85-.54,1.69,1.51,.89,.67-.14-.15-.3-.29-.44-.43-.9-.89,.99,1.46,.67,.9-.23-.4-.48-.76-.66-1.19l.76,1.79c-.25-.62-.42-1.25-.51-1.91l.27,1.99c-.11-.86-.11-1.71-.01-2.57l-.27,1.99c.12-.9,.36-1.76,.7-2.6l-.76,1.79c.23-.53,.49-1.03,.8-1.52,.13-.21,.28-.41,.42-.62,.64-.94-1.32,1.57-.55,.72s1.6-1.62,2.48-2.37c-2.14,1.8-.56,.45,.06,.04,.56-.37,1.13-.71,1.71-1.04,1.11-.62,2.26-1.17,3.43-1.68l-1.79,.76c4.09-1.73,8.44-2.89,12.84-3.49l-1.99,.27c4.32-.56,8.73-.44,13.04,.11l-1.99-.27c3.14,.43,6.27,1.08,9.21,2.29l-1.79-.76c.86,.37,1.7,.79,2.49,1.3,.14,.09,.26,.21,.41,.28-1.92-1.04-1.36-1.13-.89-.66,.13,.13,.25,.26,.38,.38,.73,.68-1.26-1.74-.68-.89,1.11,1.63,2.54,2.91,4.48,3.45,1.8,.49,4.19,.27,5.78-.76,3.23-2.08,5.05-6.79,2.69-10.26-2.88-4.25-7.54-6.41-12.37-7.71-5.15-1.39-10.67-1.95-15.99-1.84-7.95,.17-15.84,2.13-23,5.58s-14.49,10.53-13.9,19.42c.32,4.89,2.4,8.8,6.38,11.67,2.93,2.11,6.59,2.75,10.09,3.13,6.81,.74,13.76-.79,20.48-1.7l-1.99,.27c3.65-.49,7.24-.29,10.9,.18l-1.99-.27c2.96,.41,5.9,1.04,8.67,2.19l-1.79-.76c.78,.34,1.55,.71,2.29,1.14,.32,.19,.63,.4,.94,.61,1.27,.81-1.47-1.32-.4-.3,.24,.23,.5,.45,.73,.7,.13,.13,.24,.27,.37,.4,.6,.61-.81-1.1-.77-1.02,.3,.61,.75,1.15,1.04,1.78l-.76-1.79c.29,.7,.49,1.41,.6,2.16l-.27-1.99c.17,1.28,.12,2.59-.04,3.87l.27-1.99c-.18,1.22-.48,2.4-.94,3.55l.76-1.79c-.4,.95-.92,1.79-1.47,2.66-.46,.71,1.28-1.55,.56-.72-.16,.18-.31,.37-.47,.54-.36,.39-.74,.77-1.13,1.12-.18,.16-.37,.31-.56,.47-.64,.56,1.62-1.17,.7-.54-.41,.28-.82,.57-1.24,.83-.97,.59-1.98,1.09-3.02,1.54l1.79-.76c-2.84,1.19-5.83,1.9-8.88,2.33l1.99-.27c-5.37,.7-10.77,.4-16.13-.32l1.99,.27c-8.83-1.22-17.88-3.23-26.22-6.44-1.71-.66-4.26-.13-5.78,.76s-3.04,2.69-3.45,4.48c-.44,1.92-.34,4.07,.76,5.78s2.56,2.71,4.48,3.45h0Z"/>
    <path d="M967.11,1302.64c16.04-13.85,32.08-27.71,48.11-41.56,2.18-1.89,4.36-3.78,6.55-5.65,.48-.41,.97-.81,1.46-1.22,.94-.79-.43,.31-.51,.38,.26-.24,.58-.43,.87-.63,1.1-.77,2.24-1.45,3.46-2l-1.79,.76c1-.42,2-.73,3.07-.89l-1.99,.27c.8-.09,1.57-.09,2.37,.01l-1.99-.27c.27,.04,.54,.09,.8,.16l-5.24-9.23c-7.03,17.96-14.23,35.86-21.32,53.8-.67,1.7-.13,4.27,.76,5.78s2.69,3.04,4.48,3.45c1.92,.44,4.07,.34,5.78-.76s2.69-2.57,3.45-4.48c7.1-17.94,14.29-35.84,21.32-53.8,.64-1.63,.17-4.34-.76-5.78-1.03-1.6-2.57-3.01-4.48-3.45-3.43-.79-6.96-.62-10.24,.71s-6.15,3.3-8.98,5.62c-4.53,3.71-8.88,7.65-13.31,11.47-9.02,7.79-18.04,15.58-27.06,23.38-5.14,4.44-10.27,8.87-15.41,13.31-2.98,2.57-2.84,8,0,10.61,3.17,2.91,7.43,2.75,10.61,0h0Z"/>
    <path d="M1273.07,1305.22c16.04-13.85,32.08-27.71,48.11-41.56,2.18-1.89,4.36-3.78,6.55-5.65,.48-.41,.97-.81,1.46-1.22,.94-.79-.43,.31-.51,.38,.26-.24,.58-.43,.87-.63,1.1-.77,2.24-1.45,3.46-2l-1.79,.76c1-.42,2-.73,3.07-.89l-1.99,.27c.8-.09,1.57-.09,2.37,.01l-1.99-.27c.27,.04,.54,.09,.8,.16l-5.24-9.23c-7.03,17.96-14.23,35.86-21.32,53.8-.67,1.7-.13,4.27,.76,5.78s2.69,3.04,4.48,3.45c1.92,.44,4.07,.34,5.78-.76s2.69-2.57,3.45-4.48c7.1-17.94,14.29-35.84,21.32-53.8,.64-1.63,.17-4.34-.76-5.78-1.03-1.6-2.57-3.01-4.48-3.45-3.43-.79-6.96-.62-10.24,.71s-6.15,3.3-8.98,5.62c-4.53,3.71-8.88,7.65-13.31,11.47-9.02,7.79-18.04,15.58-27.06,23.38-5.14,4.44-10.27,8.87-15.41,13.31-2.98,2.57-2.84,8,0,10.61,3.17,2.91,7.43,2.75,10.61,0h0Z"/>
    <path d="M1357.69,1243.06c-6.99,14.99-13.15,30.38-18.34,46.08-1.54,4.66-4.44,10.6-1.58,15.25,1.94,3.15,5.31,4.44,8.87,4.51,.64,.01,1.27,0,1.91,0,4.54-.01,9.09-.08,13.63-.14s9.44-.15,14.15-.15c3.92,0,7.68-3.45,7.5-7.5s-3.3-7.5-7.5-7.5c-5.23,0-10.47,.1-15.7,.17-2.97,.04-5.93,.07-8.9,.1-2.03,.02-4.16,.2-6.18-.06l1.99,.27c-.21-.03-.41-.09-.61-.17l1.79,.76c.71,.5,1.32,1.1,1.83,1.8l.76,1.79-.07-.36,.27,1.99v-.38c-.09,.66-.18,1.33-.27,1.99,.22-1.62,.9-3.22,1.39-4.77,.53-1.67,1.08-3.33,1.63-4.99,1.08-3.24,2.21-6.47,3.37-9.68,2.36-6.5,4.88-12.94,7.57-19.31l-.76,1.79c1.98-4.69,4.04-9.33,6.19-13.94,.87-1.87,1.32-3.72,.76-5.78-.48-1.74-1.82-3.63-3.45-4.48-3.32-1.75-8.49-1.11-10.26,2.69h0Z"/>
    <path d="M1284.65,1243.2c-16.32,13.52-32.63,27.05-48.95,40.57-2.22,1.84-4.43,3.69-6.66,5.52-.22,.18-.43,.35-.65,.53-.92,.74-.04,.12,.35-.25-.44,.43-1.06,.78-1.57,1.12-1.11,.75-2.27,1.4-3.5,1.93l1.79-.76c-.88,.35-1.76,.61-2.7,.78l1.99-.27c-.8,.11-1.57,.12-2.37,.05l1.99,.27c-.41-.06-.79-.14-1.19-.24l5.24,9.23c7.4-17.81,14.96-35.56,22.41-53.35,.7-1.66,.11-4.3-.76-5.78-.91-1.56-2.69-3.04-4.48-3.45-1.92-.44-4.07-.34-5.78,.76s-2.65,2.57-3.45,4.48c-7.46,17.79-15.02,35.54-22.41,53.35-.66,1.6-.15,4.37,.76,5.78,1.05,1.62,2.56,2.97,4.48,3.45,7.37,1.85,13.71-1.67,19.3-6.09,4.59-3.63,9.04-7.46,13.54-11.2,9.18-7.61,18.36-15.21,27.53-22.82,5.23-4.33,10.45-8.66,15.68-12.99,1.4-1.16,2.2-3.56,2.2-5.3,0-1.84-.82-4.04-2.2-5.3s-3.31-2.29-5.3-2.2-3.7,.86-5.3,2.2h0Z"/>
    <path d="M720.13,1269.68c6.24,11.97,12.4,23.98,18.46,36.04,1.84,3.66,3.67,7.33,5.47,11.01s7.03,4.77,10.26,2.69c3.62-2.33,4.54-6.48,2.69-10.26-6.56-13.4-13.38-26.67-20.23-39.92-1.23-2.38-2.46-4.76-3.7-7.14-1.82-3.48-6.97-4.81-10.26-2.69-3.55,2.29-4.64,6.54-2.69,10.26h0Z"/>
    <path d="M796.79,1246.36c-3.06,8.38-6.42,16.64-9.4,25.05-1.31,3.7,1.48,8.37,5.24,9.23,4.2,.96,7.82-1.27,9.23-5.24,2.98-8.41,6.35-16.66,9.4-25.05,.63-1.74,.15-4.23-.76-5.78s-2.69-3.04-4.48-3.45c-4.23-.96-7.79,1.29-9.23,5.24h0Z"/>
    <path d="M1041.31,1300.57c7.44-14.8,14.06-30.04,20.79-45.17,.44-.98,.88-1.97,1.32-2.95,.09-.2,.21-.41,.28-.62-.26,.75-1.78,2.06-2.57,2.54,.08-.05,.17-.1,.26-.13l-1.79,.76c1.04-.43,2.23-.57,3.34-.72l-1.99,.27c4.39-.58,8.89-.56,13.28,.02l-1.99-.27c2.92,.4,5.8,1.07,8.52,2.2l-1.79-.76c.94,.4,1.86,.85,2.73,1.37,.46,.27,.9,.57,1.34,.88,1.16,.8-1.52-1.26-.73-.57,.17,.15,.35,.29,.53,.45,.37,.33,.72,.67,1.06,1.03,.18,.19,.34,.4,.52,.59,.7,.79-1.3-1.83-.63-.81,.59,.88,1.12,1.76,1.54,2.74l-.76-1.79c.5,1.23,.83,2.51,1.01,3.83l-.27-1.99c.19,1.49,.22,3.02,.03,4.51l.27-1.99c-.14,.95-.39,1.87-.75,2.76l.76-1.79c-.37,.87-.84,1.66-1.36,2.44-.67,1,.55-.79,.67-.85-.2,.11-.4,.47-.55,.65-.32,.35-.66,.69-1.01,1.01-.62,.57-2.13,1.42,.19-.08-.47,.3-.91,.65-1.39,.95-1.03,.64-2.11,1.17-3.23,1.65l1.79-.76c-2.51,1.03-5.15,1.67-7.84,2.04l1.99-.27c-4.39,.57-8.81,.42-13.19-.17l1.99,.27c-2.08-.29-4.14-.68-6.19-1.15-3.14-.72-6.88,.44-8.47,3.45-1.47,2.79-1.41,6.89,1.17,9.09,8.69,7.4,17.72,14.39,26.4,21.8,1.54,1.31,3.22,2.2,5.3,2.2,1.84,0,4.04-.82,5.3-2.2,2.57-2.8,3.19-7.89,0-10.61-8.68-7.41-17.71-14.4-26.4-21.8l-7.3,12.54c8.93,2.04,18.43,2.85,27.4,.53,6.65-1.72,12.96-5.42,16.69-11.31,3.33-5.26,3.73-12.56,1.58-18.34s-6.33-10.35-11.9-12.91c-9.03-4.16-19.31-4.72-29.04-3.2-3.28,.52-6.41,1.89-7.85,5.12-1.61,3.61-3.21,7.22-4.83,10.82-5.09,11.36-10.18,22.74-15.63,33.94-.52,1.07-1.05,2.14-1.58,3.21-1.76,3.5-1.04,8.29,2.69,10.26,3.41,1.8,8.38,1.05,10.26-2.69h0Z"/>
    <path d="M1119.2,1301.52c7.44-14.8,14.06-30.04,20.79-45.17,.44-.98,.88-1.97,1.32-2.95,.09-.2,.21-.41,.28-.62-.26,.75-1.78,2.06-2.57,2.54,.08-.05,.17-.1,.26-.13l-1.79,.76c1.04-.43,2.23-.57,3.34-.72l-1.99,.27c4.39-.58,8.89-.56,13.28,.02l-1.99-.27c2.92,.4,5.8,1.07,8.52,2.2l-1.79-.76c.94,.4,1.86,.85,2.73,1.37,.46,.27,.9,.57,1.34,.88,1.16,.8-1.52-1.26-.73-.57,.17,.15,.35,.29,.53,.45,.37,.33,.72,.67,1.06,1.03,.18,.19,.34,.4,.52,.59,.7,.79-1.3-1.83-.63-.81,.59,.88,1.12,1.76,1.54,2.74l-.76-1.79c.5,1.23,.83,2.51,1.01,3.83l-.27-1.99c.19,1.49,.22,3.02,.03,4.51l.27-1.99c-.14,.95-.39,1.87-.75,2.76l.76-1.79c-.37,.87-.84,1.66-1.36,2.44-.67,1,.55-.79,.67-.85-.2,.11-.4,.47-.55,.65-.32,.35-.66,.69-1.01,1.01-.62,.57-2.13,1.42,.19-.08-.47,.3-.91,.65-1.39,.95-1.03,.64-2.11,1.17-3.23,1.65l1.79-.76c-2.51,1.03-5.15,1.67-7.84,2.04l1.99-.27c-4.39,.57-8.81,.42-13.19-.17l1.99,.27c-2.08-.29-4.14-.68-6.19-1.15-3.14-.72-6.88,.44-8.47,3.45-1.47,2.79-1.41,6.89,1.17,9.09,8.69,7.4,17.72,14.39,26.4,21.8,1.54,1.31,3.22,2.2,5.3,2.2,1.84,0,4.04-.82,5.3-2.2,2.57-2.8,3.19-7.89,0-10.61-8.68-7.41-17.71-14.4-26.4-21.8-2.43,4.18-4.86,8.36-7.3,12.54,8.93,2.04,18.43,2.85,27.4,.53,6.65-1.72,12.96-5.42,16.69-11.31,3.33-5.26,3.73-12.56,1.58-18.34-2.13-5.72-6.33-10.35-11.9-12.91-9.03-4.16-19.31-4.72-29.04-3.2-3.28,.52-6.41,1.89-7.85,5.12-1.61,3.61-3.21,7.22-4.83,10.82-5.09,11.36-10.18,22.74-15.63,33.94-.52,1.07-1.05,2.14-1.58,3.21-1.76,3.5-1.04,8.29,2.69,10.26,3.41,1.8,8.38,1.05,10.26-2.69h0Z"/>
    <path d="M1192.78,1303.9c8.13-16.72,15.82-33.66,23.96-50.38,1.71-3.52,1.08-8.27-2.69-10.26-3.37-1.78-8.43-1.08-10.26,2.69-8.14,16.72-15.82,33.66-23.96,50.38-1.71,3.52-1.08,8.27,2.69,10.26,3.37,1.78,8.43,1.08,10.26-2.69h0Z"/>
    <path d="M468.97,857.21c-6.14,10.16-11.85,20.6-17.57,31-9.69,17.62-19.12,35.38-28.19,53.33-9.8,19.38-19.17,38.98-27.53,59.03-5.83,14-12.08,28.89-13.18,44.19-.21,2.89-.04,6.05,.74,8.82,1.51,5.37,5.82,8.39,10.78,10.17,6.44,2.31,13.88,2.5,20.65,2.92,18.46,1.13,37.06,.76,55.54,.16,6.44-.21,12.89-.43,19.32-.89,2.09-.15,4.46-.18,6.43-.76,3.67-1.08,6-3.43,7.97-6.53,4.75-7.45,8.3-15.87,12.17-23.79,7.33-14.97,14.52-30,21.71-45.03,8.35-17.46,16.66-34.93,25-52.4,7.31-15.31,14.62-30.63,22.04-45.89,4.15-8.53,8.06-17.31,12.84-25.51,.21-.36,.47-.7,.65-1.07,.62-1.27-1.91,2.37-1.63,2.09,.93-.95-2.71,2-2.25,1.7-2.09,1.35-3.81,1.4-2.47,1.11,.1-.02-4.33,.43-2.38,.34,.78-.04,1.56-.1,2.34-.14,6.43-.29,12.88-.31,19.31-.38,22.94-.24,45.88-.3,68.83-.5,12.83-.11,25.66-.26,38.49-.49,6-.11,12.01-.23,18.01-.39,2.68-.07,5.35-.14,8.03-.23,1.33-.04,2.65-.08,3.98-.13,.6-.02,1.19-.04,1.79-.06,1.32-.05,3.34,.38-.28-.64-1.96-.55-3.88-1.63-4.99-3.48l-.43-3.33c-.79-1.56-.78-3.01,.02-4.34,.78-1.94,.43-.97,.22-.51-.18,.39-.35,.77-.53,1.16-.39,.86-.79,1.71-1.18,2.57-.92,1.99-1.84,3.99-2.76,5.98-2.4,5.18-4.8,10.36-7.21,15.54-6.59,14.14-13.21,28.27-19.85,42.39-8.24,17.52-16.52,35.02-24.83,52.51-9.03,19.01-18.11,38-27.24,56.96-8.83,18.33-17.7,36.63-26.68,54.88-7.75,15.76-15.55,31.49-23.54,47.12-5.73,11.22-11.5,22.44-17.7,33.41-1.85,3.28-3.73,6.56-5.82,9.71-.36,.53-.73,1.06-1.09,1.58-1.45,2.09,2.3-2.56,.92-1.18-.23,.23-.58,.54-.75,.81-.67,1.02,2.43-1.81,2.09-1.6-.97,.58,2.73-.96,2.55-1.04s-.99,.17-1.21,.21c-1.87,.35,3-.37,2.28-.3-.32,.03-.64,.08-.96,.12-1.67,.18-3.33,.34-5,.47-4.96,.4-9.93,.68-14.9,.93-15.35,.78-30.72,1.26-46.08,1.64-20.29,.5-40.59,.79-60.88,.91-22.47,.13-44.94,.03-67.4-.34-21.89-.37-43.78-.99-65.64-2.11-18.56-.95-37.14-2.19-55.6-4.39-1.96-.23-3.94-.42-5.89-.74,.61,.1,3.41,.47,1.44,.19-.43-.06-.86-.12-1.29-.18-.98-.14-1.97-.28-2.95-.43-3.32-.5-6.63-1.05-9.93-1.69-2.92-.56-5.82-1.18-8.7-1.91s-5.48-1.52-8.16-2.48c-.76-.27-1.52-.56-2.27-.85-.36-.14-.74-.34-1.11-.45-.02,0,2.25,1,1.06,.44-1.5-.72-3.02-1.39-4.49-2.17-2.79-1.47-5.49-3.11-8.06-4.95-.56-.4-1.1-.91-1.69-1.25-.06-.03,1.99,1.66,1.07,.81-.25-.23-.54-.43-.8-.65-1.21-1-2.38-2.05-3.51-3.14-2.03-1.95-3.88-4.04-5.67-6.21-1.31-1.59,1.52,2.11,.35,.44-.36-.51-.73-1-1.08-1.51-.75-1.09-1.47-2.2-2.15-3.33-1.33-2.2-2.48-4.48-3.56-6.81-.95-2.04,.56,1.46,.31,.75-.23-.62-.49-1.23-.72-1.85-.42-1.13-.8-2.27-1.16-3.43-.68-2.22-1.23-4.48-1.66-6.76-.09-.51-.17-1.02-.26-1.53-.38-2.16,.2,1.95,.15,1.18-.08-1.07-.23-2.13-.3-3.2-.13-2.02-.15-4.05-.03-6.07,.04-.75,.43-4.12,.07-1.45s.11-.53,.26-1.26c.38-1.81,.91-3.58,1.47-5.34,1.51-4.75,3.28-9.43,5.07-14.08,2.52-6.55,5.17-13.06,7.86-19.55,.75-1.81,1.51-3.62,2.26-5.42,.22-.52,.44-1.04,.66-1.56,.73-1.73-1.18,2.8-.45,1.06,.42-.99,.84-1.99,1.26-2.98,1.77-4.15,3.55-8.3,5.34-12.44,7.95-18.35,16.15-36.59,24.51-54.76s17.34-37.21,26.36-55.65c7.59-15.5,15.32-30.95,23.58-46.1,2.98-5.47,6.03-10.9,9.3-16.21,1.2-1.95,2.44-3.89,3.74-5.77,.54-.78,1.11-1.53,1.66-2.3,.64-.9-2.48,3.04-1,1.31,.24-.28,.46-.56,.71-.84,.4-.46,.86-.86,1.27-1.31,1.29-1.41-3.28,2.08-1.33,1.05-1.15,.6-3.82,1.38-5.07,1.36,.49,0,.99-.06,1.48-.07,4.62-.17,9.25-.13,13.87-.13,17.78-.02,35.56,.15,53.33,.33,20.41,.2,40.82,.46,61.23,.78,12.36,.2,24.74,.29,37.1,.8,6.28,.26,12.28-5.7,12-12-.3-6.72-5.27-11.72-12-12-13.16-.54-26.34-.63-39.51-.84-20.61-.32-41.23-.57-61.84-.77-17.5-.17-35-.34-52.5-.3-4.16,0-8.36-.09-12.52,.16-5.12,.31-9.2,2.21-12.57,6.08-7.31,8.4-12.65,18.64-17.95,28.35-8.35,15.29-16.15,30.89-23.81,46.54-9.11,18.63-17.96,37.38-26.62,56.22s-16.59,36.51-24.55,54.91c-6.59,15.22-13.11,30.48-19.06,45.96-4.21,10.96-8.27,21.77-7.61,33.76,1.34,24.44,15.01,46.6,35.56,59.68,16.41,10.44,35.63,13.41,54.52,15.88,18.03,2.36,36.19,3.67,54.34,4.68,21.87,1.22,43.76,1.91,65.66,2.33,22.74,.44,45.49,.57,68.23,.48,20.67-.08,41.34-.35,62.01-.83,15.97-.37,31.94-.84,47.89-1.62,9.2-.45,18.96-.41,28.02-2.28,7.59-1.57,11.8-10.27,15.35-16.39,6-10.32,11.48-20.95,16.94-31.56,7.85-15.26,15.51-30.63,23.1-46.02,8.99-18.23,17.88-36.52,26.71-54.83,9.21-19.08,18.35-38.19,27.45-57.32,8.47-17.8,16.9-35.62,25.3-53.45,6.9-14.65,13.78-29.31,20.62-43.99,4.37-9.37,8.77-18.72,13.03-28.14,2.13-4.71,3.3-9.24,1.18-14.28-2.69-6.37-8.53-9.97-15.44-9.83-5.33,.11-10.67,.36-16,.49-12.46,.31-24.92,.5-37.39,.65-24.7,.3-49.41,.39-74.11,.58-8.46,.06-16.92,.12-25.37,.29-4.86,.1-11.79-.57-16.03,2.16-3.39,2.18-5.22,5.49-7.04,8.94-2.2,4.17-4.28,8.4-6.37,12.62-6.88,13.96-13.6,27.99-20.31,42.03-8.37,17.49-16.7,35.01-25.06,52.51-7.72,16.19-15.45,32.37-23.27,48.51-4.99,10.29-9.89,20.67-15.31,30.74-.58,1.08-1.19,2.14-1.81,3.2-.99,1.7,.38-.76,1.31-1.62s3.4-2.37,5.1-2.93c-.14,.04-.28,.05-.42,.08,.11-.03,4.34-.48,2.37-.34-.4,.03-.79,.07-1.19,.1-1.04,.08-2.08,.15-3.12,.21-3.02,.18-6.04,.32-9.06,.45-18.42,.77-36.91,1.14-55.34,.51-4.16-.14-8.32-.34-12.46-.69-1.74-.14-3.46-.37-5.2-.53-.84-.08,3.65,.54,1.76,.24-.34-.05-.68-.1-1.01-.15-.72-.12-1.44-.24-2.16-.39-1.08-.22-2.12-.57-3.19-.84-1.91-.49,3.2,1.56,1.64,.69-1.89-1.06,1.92,1.65,1.48,1.22,.91,.91,2.17,3.43,2.65,4.52-.09-.2-.08-.45-.14-.66-.42-1.53,.24,2.79,.3,2.27,.12-.96-.11-2.06-.07-3.04,.02-.53,.06-1.06,.11-1.59,.03-.28,.07-.56,.09-.84,.14-1.89-.57,3.62-.24,1.73,.25-1.39,.47-2.78,.77-4.16,.71-3.28,1.63-6.51,2.63-9.7,2.51-8.03,5.57-15.89,8.8-23.66,.25-.59,.5-1.18,.74-1.78,.29-.71-1.22,2.87-.34,.82,.48-1.13,.96-2.25,1.45-3.38,1-2.31,2.02-4.61,3.04-6.91,2.14-4.79,4.34-9.55,6.58-14.29,4.66-9.87,9.48-19.66,14.42-29.4,9.12-18.01,18.6-35.83,28.35-53.51,5.49-9.96,10.97-19.95,16.85-29.69,3.25-5.38,1.37-13.42-4.31-16.42s-12.95-1.44-16.42,4.31Z"/>
    <path d="M836.26,868.38c15.06-.35,30.11-.75,45.17-1.13,29.67-.75,59.33-1.5,89-2.24,35.49-.89,70.98-1.78,106.48-2.66,31.85-.79,63.71-1.57,95.56-2.33,19.46-.46,38.91-.96,58.37-1.3,1.06-.02,2.12-.04,3.17-.05-2.83-6.83-5.66-13.66-8.49-20.49-9.73,7.99-18.54,17.34-27.27,26.38-13.9,14.4-27.26,29.36-39.25,45.4-5.31,7.1-10.48,14.52-14.11,22.64l10.36-5.94h-179.47c-3.92,0-8.63,2.21-10.36,5.94-9.05,19.44-18.6,38.66-28,57.93-3.9,8,.75,18.06,10.36,18.06,24.74,0,49.49-.06,74.23-.49l-11.57-15.19c-5.36,14.28-11.01,28.45-16.85,42.54-1.58,3.8-3.16,7.6-4.76,11.4-.76,1.81-1.52,3.63-2.29,5.44-.45,1.07-.9,2.14-1.35,3.21-.23,.54-.46,1.09-.69,1.63,.63-1.49,.68-1.62,.16-.38-4.34,10.29-8.7,20.57-13.03,30.86l11.57-8.81c-32.08-.21-64.16-.31-96.24-.89-4.13-.07-8.35,2.32-10.36,5.94-8.53,15.38-16.08,31.24-23.5,47.18-5.38,11.54-10.52,23.45-17.57,34.09-.68,1.02-1.39,2.01-2.1,3.01-1.27,1.77,1.05-1.25,.57-.74-.41,.44-.76,.93-1.15,1.38-1.35,1.56-2.94,2.8-4.38,4.25,.53-.53,2.66-1.7,1.04-.86-1.72,.9,2.94-1.1,2.39-.92-.13,.04-.27,.07-.41,.11-1.63,.46,2.07-.29,2.44-.31-.29,.02-.59,.07-.88,.09-4.61,.36-9.24,.47-13.87,.57-17.48,.38-34.98,.35-52.47,.3-20.17-.06-40.34-.24-60.51-.57-12.85-.21-25.8-.16-38.62-1.15-.6-.05-1.2-.1-1.8-.17,3.86,5.06,7.71,10.13,11.57,15.19,.08-.39,.27-.75,.39-1.12,.63-1.94-1.55,3.56-.79,1.86,.19-.43,.38-.86,.57-1.29,1.11-2.48,2.28-4.93,3.45-7.37,3.94-8.24,8-16.43,12.07-24.61,12.93-26.01,26.09-51.92,39.31-77.78,15.81-30.93,31.74-61.8,47.82-92.59,13.95-26.7,27.98-53.37,42.42-79.81,4.83-8.84,9.7-17.67,14.77-26.37,1.66-2.84,3.34-5.68,5.11-8.45,.6-.95,1.22-1.89,1.86-2.81,.23-.33,.51-.64,.72-.99-.09,.14-2.71,3.05-1.18,1.57,.13-.13,.33-.29,.44-.44-1.55,2.23-5.24,3.08-8.06,3.28,6.25-.44,12.3-5.2,12-12-.27-6.12-5.29-12.48-12-12-8.4,.6-12.25,7.53-16.18,13.96-4.57,7.47-8.83,15.13-13.07,22.79-13.99,25.26-27.46,50.81-40.88,76.38-16.3,31.07-32.42,62.23-48.42,93.46-13.98,27.28-27.88,54.6-41.58,82.02-4.6,9.21-9.19,18.43-13.68,27.7-2.72,5.6-5.71,11.25-7.85,17.11-.14,.37-.31,.73-.39,1.12-.76,3.87-.29,7.3,2.15,10.46s5.5,4.25,9.42,4.73c11.36,1.37,23.11,1,34.53,1.21,20.15,.38,40.3,.57,60.46,.65,18.38,.08,36.77,.12,55.14-.21,5.28-.09,10.59-.16,15.86-.53,2.1-.15,4.36-.21,6.37-.8,4.67-1.38,8.72-5.25,11.84-8.87,8.06-9.37,13.52-20.58,18.8-31.66,7.2-15.12,14.06-30.39,21.76-45.27,2.2-4.25,4.47-8.47,6.79-12.65-3.45,1.98-6.91,3.96-10.36,5.94,32.08,.57,64.16,.67,96.24,.89,5.84,.04,9.49-3.87,11.57-8.81,.17-.4,1.93-4.57,.95-2.24,.56-1.32,1.11-2.63,1.67-3.95,1.06-2.52,2.13-5.03,3.19-7.55,1.84-4.35,3.68-8.7,5.51-13.05,3.57-8.45,7.13-16.9,10.64-25.37,5.84-14.09,11.49-28.26,16.85-42.54,2.75-7.33-4.32-15.32-11.57-15.19-24.74,.43-49.48,.49-74.23,.49l10.36,18.06c9.4-19.28,18.95-38.49,28-57.93l-10.36,5.94h179.47c3.87,0,8.69-2.21,10.36-5.94,3.1-6.92,7.34-13.3,11.76-19.43,1.3-1.81,2.64-3.59,3.99-5.37,1.46-1.93-1.43,1.81-.41,.52,.36-.45,.71-.91,1.07-1.37,.8-1.01,1.6-2.02,2.41-3.03,3.02-3.75,6.13-7.44,9.28-11.08,11.68-13.47,24.02-26.4,36.83-38.8,3.88-3.76,7.76-7.58,11.94-11.01,3.66-3.01,4.18-9.09,2.48-13.11-1.82-4.31-6.17-7.45-10.97-7.38-17.32,.25-34.63,.72-51.95,1.13-30.82,.73-61.65,1.48-92.47,2.24-35.56,.88-71.12,1.77-106.68,2.66-30.83,.77-61.66,1.55-92.49,2.33-17.33,.44-34.66,.88-51.99,1.3-.73,.02-1.45,.03-2.18,.05-6.27,.15-12.29,5.42-12,12s5.28,12.16,12,12Z"/>
  </g>
  <g id="Capa_14" data-name="Capa 14">
    <polygon class="cls-2" points="1301.62 1219.7 820.84 1219.7 820.84 1210.9 1238 1180 1301.62 1219.7"/>
    <polygon class="cls-2" points="866.53 1193.46 1226.25 1169.94 1215.24 1158.56 895.73 1137.33 866.53 1193.46"/>
  </g>
</svg>